<svg xmlns="http://www.w3.org/2000/svg" width="24" height="24" viewBox="0 0 24 24"><path class="color" fill="#29242D" d="M12 20.75c-.17 0-.339-.058-.478-.172-.247-.204-6.068-5.031-8.377-8.144-1.748-2.693-1.549-5.853.456-7.722C4.612 3.77 5.952 3.25 7.374 3.25c1.153 0 2.293.347 3.208.978.651.448 1.103.952 1.417 1.432.315-.48.767-.984 1.418-1.432.915-.631 2.055-.978 3.209-.978 1.421 0 2.761.52 3.772 1.462 2.005 1.868 2.204 5.027.482 7.683-2.334 3.152-8.155 7.979-8.402 8.183-.139.114-.308.172-.478.172zm-4.626-16c-1.041 0-2.018.376-2.75 1.059-1.464 1.364-1.565 3.737-.247 5.77 1.808 2.436 6.172 6.211 7.623 7.442 1.451-1.231 5.819-5.013 7.648-7.48 1.292-1.996 1.191-4.369-.272-5.731-.733-.684-1.71-1.06-2.75-1.06-.854 0-1.69.253-2.357.713-1.23.846-1.451 1.933-1.534 2.343-.071.349-.378.6-.734.6H12c-.356 0-.663-.25-.734-.599-.084-.41-.308-1.499-1.535-2.344-.667-.46-1.504-.713-2.357-.713z"></path></svg>