<svg height="28" viewBox="0 0 28 28" width="28" xmlns="http://www.w3.org/2000/svg"><path d="M20.152 1.435a.5.5 0 01.492.41l.008.09v5.298a.5.5 0 01-.248.432l-.081.037-2.526.92c3.282 1.46 5.578 4.746 5.578 8.564 0 5.17-4.206 9.375-9.375 9.375s-9.375-4.206-9.375-9.375c0-3.717 2.177-6.93 5.321-8.445l.257-.12-2.526-.919a.5.5 0 01-.321-.381l-.008-.089V1.934a.5.5 0 01.41-.491l.09-.009zM14 8.81c-4.618 0-8.375 3.757-8.375 8.377 0 4.618 3.757 8.375 8.375 8.375s8.375-3.757 8.375-8.375c0-4.62-3.757-8.377-8.375-8.377zm.716 3.992A3.309 3.309 0 0118 16.086c.011 1.772-1.434 3.231-3.185 3.327l-.182.005h-.797a.227.227 0 01-.22-.166l-.007-.06v-1.017c0-.104.07-.193.167-.22l.06-.007h.814c1.01 0 1.864-.798 1.879-1.81a1.837 1.837 0 00-1.866-1.865c-.96.013-1.73.784-1.804 1.728l-.006.15v3.186a3.305 3.305 0 01-1.33 2.652.463.463 0 01-.42.069l-.083-.037-.936-.541c-.126-.073-.11-.261.028-.307.69-.236 1.203-.89 1.265-1.677l.006-.16v-3.168c0-1.832 1.499-3.38 3.332-3.366zm1.021-10.367h-3.474l.001 5.537a9.206 9.206 0 013.133-.053l.34.058zm3.915 0h-2.915v5.518l2.915-1.072zm-8.389 0H8.348v4.447l2.915 1.06z" fill="#ec6c5d" class="color"></path></svg>