<svg width="18" height="18" fill="none" xmlns="http://www.w3.org/2000/svg"><path fill-rule="evenodd" clip-rule="evenodd" d="M8.091 3.548a14.396 14.396 0 0 1 .89 1.91h.037a15.529 15.529 0 0 1 .89-1.91c.39-.692.806-1.268 1.254-1.69 1.339-1.262 2.767-1.25 3.624-.179.81 1.015.395 2.383-1.011 3.309-.25.165-.544.321-.874.47h2.714c.83 0 1.502.673 1.502 1.503v1.774c0 .783-.6 1.426-1.365 1.496v5.96c0 .83-.672 1.503-1.502 1.503H3.75c-.83 0-1.502-.673-1.502-1.503v-5.96A1.502 1.502 0 0 1 .883 8.735V6.96c0-.83.672-1.502 1.501-1.502H5.1a6.325 6.325 0 0 1-.874-.471C2.82 4.062 2.404 2.694 3.215 1.679 4.07.608 5.5.596 6.837 1.857c.448.423.865.998 1.254 1.69Zm-4.793 6.689v5.954c0 .25.202.453.452.453h4.725v-6.407H3.298Zm6.227 6.407h4.725c.25 0 .452-.202.452-.453v-5.954H9.525v6.407Zm6.09-7.457h-6.09V6.509h6.09c.25 0 .452.202.452.452v1.774c0 .25-.202.452-.452.452ZM2.385 6.509h6.09v2.678h-6.09a.452.452 0 0 1-.452-.452V6.96c0-.25.202-.452.451-.452Zm7.85-1.253c.178-.409.375-.813.589-1.193.342-.608.7-1.103 1.059-1.442.912-.86 1.629-.853 2.083-.286.377.472.168 1.159-.769 1.776-.377.248-.91.49-1.554.718-.448.158-.926.301-1.408.427ZM6.117 2.621c.36.34.717.834 1.06 1.442.213.38.41.784.587 1.193-.481-.126-.959-.268-1.406-.426-.645-.228-1.178-.47-1.554-.719-.939-.617-1.146-1.303-.768-1.776.452-.567 1.17-.573 2.08.286Z" fill="#064162"></path></svg>