<svg xmlns="http://www.w3.org/2000/svg" width="24" height="24" viewBox="0 0 24 24"><path class="color" fill="#29242D" d="M4.6875 15.3438h9.313v1.5h-.883l.633 2.531h-5.001l.633-2.531h-4.695c-.931 0-1.687-.757-1.687-1.687v-8.844c0-.931.756-1.688 1.687-1.688h13.125c.931 0 1.688.757 1.688 1.688v3.058h-1.5v-3.058c0-.104-.084-.188-.188-.188H4.6875c-.104 0-.187.084-.187.188v8.844c0 .105.082.187.187.187zM20 19.375h-4c-.552 0-1-.448-1-1v-7.001c0-.552.448-1 1-1h4c.552 0 1 .448 1 1v7.001c0 .552-.448 1-1 1zm-4-7.251v5.501h3.999L20 12.124h-4z"></path></svg>