<svg width="24" height="24" viewBox="0 0 24 24" fill="none" xmlns="http://www.w3.org/2000/svg"><path d="M21.57 2.5H2.43C2.16478 2.5 1.91043 2.60536 1.72289 2.79289C1.53536 2.98043 1.43 3.23478 1.43 3.5V7.6C1.43038 7.69555 1.45321 7.78967 1.49663 7.87478C1.54005 7.95989 1.60286 8.03361 1.68 8.09L3.73 9.59C3.82953 9.66035 3.94813 9.69872 4.07 9.7H4.34H4.92V21.12C4.91988 21.1776 4.93286 21.2345 4.95797 21.2864C4.98309 21.3383 5.01967 21.3837 5.06495 21.4194C5.11023 21.455 5.16302 21.4799 5.21934 21.4922C5.27565 21.5044 5.33401 21.5036 5.39 21.49L11.9 19.74C11.9652 19.7199 12.0348 19.7199 12.1 19.74L18.61 21.49C18.666 21.5036 18.7243 21.5044 18.7807 21.4922C18.837 21.4799 18.8898 21.455 18.9351 21.4194C18.9803 21.3837 19.0169 21.3383 19.042 21.2864C19.0671 21.2345 19.0801 21.1776 19.08 21.12V9.78H19.66H19.92C20.0452 9.78012 20.1674 9.74171 20.27 9.67L22.35 8.19C22.4271 8.13361 22.4899 8.05989 22.5334 7.97478C22.5768 7.88967 22.5996 7.79555 22.6 7.7V3.52C22.6028 3.38444 22.578 3.24973 22.527 3.12407C22.4761 2.9984 22.4002 2.8844 22.3039 2.78899C22.2075 2.69359 22.0928 2.61877 21.9666 2.56909C21.8405 2.51941 21.7055 2.4959 21.57 2.5V2.5ZM4.9 8.58H4.47H4.29L2.6 7.31V3.7H4.9V8.58ZM21.4 7.31L19.71 8.52H19.53H19.08V3.7H21.4V7.31Z" fill="#2EAFAC"/><path d="M6.45 3.7V21.2L7.45 20.93V3.7H6.45Z" fill="white"/><path d="M16.55 3.7V20.93L17.55 21.2V3.7H16.55Z" fill="white"/><path d="M13.73 14.49L12.4 13.49L12 13.17L11.6 13.45L10.27 14.45C10.2014 14.4979 10.1195 14.5231 10.0358 14.5221C9.95206 14.521 9.87081 14.4937 9.80345 14.444C9.73609 14.3943 9.68602 14.3247 9.66028 14.2451C9.63455 14.1654 9.63445 14.0797 9.66 14L10.32 12L8.59 10.72C8.52347 10.6702 8.47413 10.6008 8.44882 10.5216C8.42352 10.4425 8.42351 10.3573 8.44881 10.2782C8.4741 10.199 8.52345 10.1296 8.58997 10.0798C8.65649 10.0299 8.7369 10.002 8.82 10H11L11.58 8.06C11.6063 7.97997 11.6572 7.91029 11.7254 7.86089C11.7937 7.8115 11.8758 7.7849 11.96 7.7849C12.0442 7.7849 12.1263 7.8115 12.1946 7.86089C12.2628 7.91029 12.3137 7.97997 12.34 8.06L13 10.06H15.18C15.2631 10.062 15.3435 10.0899 15.41 10.1398C15.4766 10.1896 15.5259 10.259 15.5512 10.3382C15.5765 10.4173 15.5765 10.5025 15.5512 10.5816C15.5259 10.6608 15.4765 10.7302 15.41 10.78L13.68 12.04L14.34 14.04C14.3656 14.1197 14.3655 14.2054 14.3397 14.2851C14.314 14.3647 14.2639 14.4343 14.1966 14.484C14.1292 14.5337 14.0479 14.561 13.9642 14.5621C13.8805 14.5631 13.7986 14.5379 13.73 14.49Z" fill="white"/></svg>