<svg width="24" height="24" viewBox="0 0 24 24" fill="none" xmlns="http://www.w3.org/2000/svg">
<path d="M20.75 6.31412H16.795C17.0788 6.10718 17.3225 5.90158 17.4925 5.71734C18.5 4.63459 18.5 2.87228 17.4925 1.78953C16.5138 0.73749 14.8063 0.736155 13.8263 1.78953C13.285 2.37029 11.8463 4.73472 12.045 6.31412H11.955C12.1525 4.73472 10.715 2.37029 10.1738 1.78953C9.19375 0.736155 7.48625 0.73749 6.5075 1.78953C5.5 2.87228 5.5 4.63459 6.50625 5.71734C6.6775 5.90158 6.92125 6.10718 7.205 6.31412H3.25C2.56125 6.31412 2 6.91357 2 7.6492V10.9869C2 11.3554 2.28 11.6544 2.625 11.6544H3.25V19.6649C3.25 20.4005 3.81125 21 4.5 21H19.5C20.1887 21 20.75 20.4005 20.75 19.6649V11.6544H21.375C21.72 11.6544 22 11.3554 22 10.9869V7.6492C22 6.91357 21.4387 6.31412 20.75 6.31412ZM7.39375 2.73076C7.6475 2.45841 7.98375 2.30888 8.34125 2.30888C8.6975 2.30888 9.03375 2.45841 9.2875 2.73076C10.13 3.63595 10.9675 5.94831 10.6762 6.27006C10.6762 6.27006 10.6238 6.31412 10.445 6.31412C9.58125 6.31412 7.9325 5.35553 7.39375 4.77611C6.87 4.2127 6.87 3.29417 7.39375 2.73076ZM11.375 19.6649H4.5V11.6544H11.375V19.6649ZM11.375 10.3194H3.25V7.6492H10.445H11.375V10.3194ZM14.7125 2.73076C15.22 2.18739 16.1 2.18872 16.6063 2.73076C17.13 3.29417 17.13 4.2127 16.6063 4.77611C16.0675 5.35553 14.4188 6.31412 13.555 6.31412C13.3763 6.31412 13.3237 6.2714 13.3225 6.27006C13.0325 5.94831 13.87 3.63595 14.7125 2.73076ZM19.5 19.6649H12.625V11.6544H19.5V19.6649ZM20.75 10.3194H12.625V7.6492H13.555H20.75V10.3194Z" fill="#DA5648"/>
</svg>
