<svg height="24" viewBox="0 0 24 24" width="24" xmlns="http://www.w3.org/2000/svg"><path d="M19.182 20.775C18.824 22 18.26 22 18.077 22H6.527c-.222 0-.9 0-1.088-1.148L4.069 9.119h3.82v1.119a.964.964 0 0 0-.477.82.979.979 0 0 0 1.957 0 .963.963 0 0 0-.48-.82V9.119h6.825v1.119a.96.96 0 0 0-.478.82.978.978 0 1 0 1.956 0 .965.965 0 0 0-.478-.82V9.119h3.822zM8.89 6.412C8.89 4.53 10.42 3 12.302 3s3.412 1.53 3.412 3.412v1.707H8.89zm12.589 1.877a.497.497 0 0 0-.375-.17h-4.39V6.412A4.417 4.417 0 0 0 12.302 2 4.417 4.417 0 0 0 7.89 6.412v1.707H3.5a.502.502 0 0 0-.496.563L4.45 20.997C4.66 22.27 5.416 23 6.527 23h11.55c.682 0 1.595-.337 2.08-2.021L21.6 8.682a.495.495 0 0 0-.121-.393z" fill="#39393e"  class="color"/></svg>