<svg height="24" viewBox="0 0 24 24" width="24" xmlns="http://www.w3.org/2000/svg"><path d="M7.5 3.921c1.968.25 3.5 1.914 3.5 3.949V21.5a.5.5 0 0 1-.5.5h-7a.5.5 0 0 1-.5-.5V7.87c0-2.035 1.532-3.699 3.5-3.949V2h-.203a.5.5 0 1 1 0-1h3.001a.5.5 0 0 1 0 1H7.5zm14.497 3.436l-1.234 11.065c0 .008.005.014.005.021v2.059c0 .826-.673 1.5-1.5 1.5h-3.664c-.827 0-1.5-.674-1.5-1.5v-2.059c0-.005.004-.013.004-.019L12.787 7.361a.497.497 0 0 1 .496-.56H21.5c.143 0 .278.06.373.168.095.105.14.246.124.388zm-2.73 13.645c.276 0 .5-.225.5-.5v-1.633h-4.663v1.633c0 .275.225.5.5.5zm1.675-13.201h-7.096l.2 1.676h6.709zm-5.894 10.068h4.77l.825-7.392h-6.478zM10 21V7.87c0-1.654-1.346-3-3-3s-3 1.346-3 3V21z" fill="#39393e" class="color"/></svg>