<svg width="24" height="24" viewBox="0 0 24 24" fill="none" xmlns="http://www.w3.org/2000/svg"><path fill-rule="evenodd" clip-rule="evenodd" d="M12.1502 0.389967C12.3987 0.365119 12.6382 0.424538 12.8773 0.583961L13.1773 0.783961C13.185 0.789092 13.1926 0.794436 13.2 0.799986C16.515 3.28625 18.6021 7.13158 18.5 11.406V13.7398C20.489 14.422 21.7 16.2099 21.7 18.3C21.7 18.5761 21.4761 18.8 21.2 18.8H12.5V21.4C12.5 21.6761 12.2761 21.9 12 21.9C11.7238 21.9 11.5 21.6761 11.5 21.4V18.8H2.79999C2.52385 18.8 2.29999 18.5761 2.29999 18.3C2.29999 16.2883 3.63335 14.3992 5.53358 13.7285C5.58861 13.7091 5.64477 13.6998 5.69999 13.6998V11C5.69999 6.83594 7.68037 3.18408 11.111 0.891735L11.5 0.599986C11.543 0.567741 11.5909 0.542639 11.6419 0.525644C11.6583 0.520175 11.6771 0.513603 11.6979 0.506328C11.811 0.466837 11.9834 0.40665 12.1502 0.389967ZM5.69999 14.7349C4.44334 15.2503 3.52215 16.4616 3.33499 17.8H5.69999V14.7349ZM6.69999 17.8H11.5V15.4C11.5 15.1238 11.7238 14.9 12 14.9C12.2761 14.9 12.5 15.1238 12.5 15.4V17.8H17.5V11C17.5 10.983 17.5008 10.9662 17.5025 10.9496C17.4513 7.20558 15.5728 3.83445 12.611 1.60824L12.3226 1.41601C12.2854 1.39119 12.267 1.38604 12.2639 1.38523C12.2624 1.38482 12.2596 1.38402 12.2497 1.385C12.2349 1.38649 12.2086 1.39142 12.1572 1.40732C12.1219 1.41826 12.0923 1.42847 12.0551 1.44129C12.0491 1.4434 12.0428 1.44557 12.0362 1.44783L11.7 1.69999C11.6926 1.70554 11.685 1.71088 11.6773 1.71601C8.51512 3.82416 6.69999 7.16874 6.69999 11V17.8ZM18.5 17.8H20.6711C20.5139 16.4593 19.7239 15.3562 18.5 14.813V17.8ZM12.1 6.89999C10.9402 6.89999 9.99999 7.84019 9.99999 8.99999C9.99999 10.1598 10.9402 11.1 12.1 11.1C13.2598 11.1 14.2 10.1598 14.2 8.99999C14.2 7.84019 13.2598 6.89999 12.1 6.89999ZM8.99999 8.99999C8.99999 7.2879 10.3879 5.89999 12.1 5.89999C13.8121 5.89999 15.2 7.2879 15.2 8.99999C15.2 10.7121 13.8121 12.1 12.1 12.1C10.3879 12.1 8.99999 10.7121 8.99999 8.99999ZM8.69999 20.1C8.97613 20.1 9.19999 20.3238 9.19999 20.6V23.2C9.19999 23.4761 8.97613 23.7 8.69999 23.7C8.42384 23.7 8.19999 23.4761 8.19999 23.2V20.6C8.19999 20.3238 8.42384 20.1 8.69999 20.1ZM15.2 20.1C15.4761 20.1 15.7 20.3238 15.7 20.6V23.2C15.7 23.4761 15.4761 23.7 15.2 23.7C14.9238 23.7 14.7 23.4761 14.7 23.2V20.6C14.7 20.3238 14.9238 20.1 15.2 20.1Z" fill="#39393E" class="color" /></svg>