<svg width="24" height="24" viewBox="0 0 24 24" xmlns="http://www.w3.org/2000/svg"><path d="M21.5541 1.14645C21.7494 1.34171 21.7494 1.65829 21.5541 1.85355L16.4541 6.95355C16.2589 7.14882 15.9423 7.14882 15.747 6.95355C15.5518 6.75829 15.5518 6.44171 15.747 6.24645L20.847 1.14645C21.0423 0.951183 21.3589 0.951183 21.5541 1.14645ZM3 5C3 4.70807 3.24309 4.5 3.5 4.5H14.7C14.9761 4.5 15.2 4.27614 15.2 4C15.2 3.72386 14.9761 3.5 14.7 3.5H3.5C2.75691 3.5 2 4.09193 2 5V17C2 17.4126 2.20127 17.7834 2.45895 18.0411C2.71662 18.2987 3.08738 18.5 3.5 18.5H9.63511L8.51965 22.3612C8.47603 22.5122 8.50594 22.6749 8.60039 22.8005C8.69484 22.9261 8.84285 23 9 23H15C15.1572 23 15.3052 22.9261 15.3996 22.8005C15.4941 22.6749 15.524 22.5122 15.4804 22.3612L14.3649 18.5H20.5C20.9126 18.5 21.2834 18.2987 21.5411 18.0411C21.7987 17.7834 22 17.4126 22 17V6C22 5.72386 21.7761 5.5 21.5 5.5C21.2239 5.5 21 5.72386 21 6V15.5H3V5ZM3 16.5H21V17C21 17.0874 20.9513 17.2166 20.8339 17.3339C20.7166 17.4513 20.5874 17.5 20.5 17.5H3.5C3.41262 17.5 3.28338 17.4513 3.16605 17.3339C3.04873 17.2166 3 17.0874 3 17V16.5ZM13.324 18.5H10.676L9.6649 22H14.3351L13.324 18.5ZM6.2002 11.7998C5.92405 11.7998 5.7002 12.0237 5.7002 12.2998C5.7002 12.5759 5.92405 12.7998 6.2002 12.7998H10.2002C10.4763 12.7998 10.7002 12.5759 10.7002 12.2998C10.7002 12.0237 10.4763 11.7998 10.2002 11.7998H6.2002ZM12.8002 7.99984C12.1002 8.79984 11.6002 9.89984 11.7002 10.8998C12.7002 10.9998 13.8002 10.5998 14.6002 9.79984C15.4002 8.99984 15.6002 8.19984 15.0002 7.59984C14.3002 6.99984 13.6002 7.19984 12.8002 7.99984Z" fill="#39393E" class="color"></path></svg>