<svg height="24" viewBox="0 0 24 24" width="24" xmlns="http://www.w3.org/2000/svg"><path d="M16.669 11.636c2.499.432 5.331.923 5.331 6.864 0 .827-.674 1.5-1.501 1.5H4.498A1.5 1.5 0 0 1 3 18.5v-14a.5.5 0 0 1 .5-.5h8.029c.278 0 .5.224.5.5v2.305c0 .006-.002.01-.003.015 0 .006.003.011.003.016-.008.122-.152 3.013 2.403 4.217.657.31 1.424.443 2.237.583zM20.499 19a.502.502 0 0 0 .501-.5c0-.284-.009-.548-.022-.803-.006 0-.012.004-.019.004H4v.799a.5.5 0 0 0 .498.5zM4 6.305h7.029V5H4zm9.752 5.504c-.811-.439-1.395-1.007-1.793-1.614l-.994.993a.5.5 0 1 1-.707-.707l1.22-1.221a6.427 6.427 0 0 1-.443-1.955H4v9.396h16.89c-.456-3.392-2.299-3.718-4.392-4.079-.586-.101-1.185-.21-1.758-.388L13.476 13.5a.498.498 0 0 1-.707 0 .499.499 0 0 1 0-.707z" fill="#39393e" class="color"/></svg>