<svg height="24" viewBox="0 0 24 24" width="24" xmlns="http://www.w3.org/2000/svg"><path d="M18.946 21.311l2.033-1.174-6.262-10.21-1.415.817-.068.039zM11.058 8.517c.533.31 1.15.764 1.653 1.413l1.324-.764.206-.12c-.255-.656-.378-1.466-.417-2.126zm-2.25-1.174a.507.507 0 0 1 .38-.05.504.504 0 0 1 .304.234l.173.3a.299.299 0 0 0 .402.107l3.78-2.183a2.11 2.11 0 0 1 .546-1.065c.804-.871 2.312-1.281 4.49-1.219-1.18-.642-2.512-.967-3.982-.967-3.6 0-6.787 1.946-6.82 1.965a.299.299 0 0 0-.12.41l.4.692a.5.5 0 0 1-.184.683L6.36 7.299a.501.501 0 0 1-.683-.183l-.4-.692a.297.297 0 0 0-.402-.108l-1.323.765a.289.289 0 0 0-.137.178.288.288 0 0 0 .03.224l1.877 3.252a.303.303 0 0 0 .402.108l1.324-.764a.294.294 0 0 0 .107-.402l-.347-.602a.497.497 0 0 1 .183-.683zM22.1 20.051a.504.504 0 0 1-.176.695L19 22.433a.49.49 0 0 1-.386.049.5.5 0 0 1-.303-.243L12.127 10.84c-.867-1.382-2.514-1.904-2.531-1.909-.004-.001-.007-.004-.011-.006a1.306 1.306 0 0 1-.702-.47l-.958.553.098.169a1.296 1.296 0 0 1-.474 1.768l-1.324.764c-.196.113-.42.174-.646.174a1.3 1.3 0 0 1-1.122-.647L2.579 7.983c-.173-.299-.218-.649-.13-.983s.305-.613.604-.786l1.323-.764c.597-.343 1.425-.121 1.769.474l.149.259.95-.549-.15-.259a1.296 1.296 0 0 1 .475-1.768C7.696 3.528 11.02 1.5 14.9 1.5c2.324 0 4.349.729 6.019 2.168.159.084.267.25.267.442a.51.51 0 0 1-.51.5c-.025-.002-.048-.001-.072-.004a17.89 17.89 0 0 0-2.148-.146c-2.026 0-2.915.477-3.303.877-.337.347-.332.675-.331.688 0 .01-.006.018-.007.028 0 .016.007.032.005.049-.058.607.063 2.138.5 2.898zM5.654 13.768a.5.5 0 0 1 .5.5v2.175a.5.5 0 0 1-1 0v-2.175a.5.5 0 0 1 .5-.5zm-1.905-.102a.5.5 0 0 1 .158.69L2.75 16.199a.496.496 0 0 1-.688.157.5.5 0 0 1-.158-.689l1.156-1.842a.501.501 0 0 1 .689-.158zm4.498.159l1.156 1.843a.5.5 0 0 1-.846.53L7.4 14.357a.5.5 0 1 1 .847-.531z" fill="#39393e" class="color"/></svg>