<svg height="20" viewBox="0 0 20 20" width="20" xmlns="http://www.w3.org/2000/svg"><g fill="none" fill-rule="evenodd"><path d="M0 20h20V0H0z"/><path d="M17.11 4.512A8.983 8.983 0 009.97.998a8.958 8.958 0 00-5.48 1.867 9 9 0 1010.973 14.267 9 9 0 001.647-12.62" fill="#f7b82b"/><g fill="#fff"><path d="M9.975 16.756A6.765 6.765 0 014.848 14.4a.3.3 0 01.456-.39 6.118 6.118 0 003.083 1.937c3.28.874 6.662-1.08 7.538-4.358a6.124 6.124 0 00-1.036-5.302.299.299 0 11.478-.36 6.715 6.715 0 011.138 5.816c-.807 3.018-3.545 5.014-6.53 5.014"/><path d="M10.462 6.108c-1.392.05-2.48 1.27-2.421 2.662l.1 2.404c.029.652-.353 1.22-.905 1.435-.103.039-.11.183-.011.233l.728.38a.347.347 0 00.38-.04c.594-.483.96-1.23.925-2.054L9.156 8.71c-.032-.768.547-1.441 1.313-1.485a1.396 1.396 0 011.476 1.357c.02.767-.601 1.4-1.368 1.433l-.617.027a.17.17 0 00-.165.179l.032.77c.004.096.084.17.179.166l.605-.026c1.39-.058 2.517-1.246 2.449-2.636a2.514 2.514 0 00-2.598-2.388"/></g></g></svg>