<svg width="24" height="24" viewBox="0 0 24 24" fill="none" xmlns="http://www.w3.org/2000/svg"><path fill-rule="evenodd" clip-rule="evenodd" d="M5.48034 2C3.55837 2 2 3.56367 2 5.49224V11.7592C2 13.6878 3.55837 15.2515 5.48034 15.2515H6.10944V17.3549C6.10944 18.0148 6.90431 18.3453 7.36919 17.8787L9.98677 15.2515H14.7831C16.7043 15.2515 18.2616 13.6876 18.2616 11.7592V5.49224C18.2616 3.56383 16.7043 2 14.7831 2H5.48034ZM3.47589 5.49224C3.47589 4.38196 4.37331 3.48133 5.48034 3.48133H14.7831C15.8889 3.48133 16.7857 4.3817 16.7857 5.49224V11.7592C16.7857 12.8698 15.8889 13.7701 14.7831 13.7701H9.6811C9.48539 13.7701 9.29769 13.8482 9.1593 13.9871L7.58533 15.5668V14.5108C7.58533 14.1017 7.25494 13.7701 6.84739 13.7701H5.48034C4.37331 13.7701 3.47589 12.8695 3.47589 11.7592V5.49224ZM6.12236 7.92524C5.63861 7.92524 5.24743 8.31928 5.24743 8.80478C5.24743 9.29029 5.63861 9.68433 6.12236 9.68433C6.60645 9.68433 6.99867 9.29066 6.99867 8.80478C6.99867 8.31891 6.60645 7.92524 6.12236 7.92524ZM14.0034 7.92524C13.5199 7.92524 13.1278 8.31903 13.1278 8.80478C13.1278 9.29053 13.5199 9.68433 14.0034 9.68433C14.4869 9.68433 14.879 9.29053 14.879 8.80478C14.879 8.31903 14.4869 7.92524 14.0034 7.92524ZM10.0648 7.92615C9.58115 7.92615 9.1885 8.31931 9.1885 8.80569C9.1885 9.29206 9.58115 9.68523 10.0648 9.68523C10.5493 9.68523 10.9411 9.29194 10.9411 8.80569C10.9411 8.31943 10.5493 7.92615 10.0648 7.92615ZM22 10.3497H20.5241V16.4481C20.5241 17.3463 19.8002 18.073 18.9062 18.073H17.1259C16.7183 18.073 16.3879 18.4046 16.3879 18.8137V19.4702L15.2114 18.2898C15.073 18.151 14.8854 18.073 14.6897 18.073H9.88753V19.5543H14.3841L16.6042 21.7817C17.0691 22.2481 17.8638 21.9176 17.8638 21.2578V19.5543H18.9062C20.6155 19.5543 22 18.1642 22 16.4481V10.3497Z" fill="#39393E"></path></svg>