<svg width="30" height="30" fill="none" xmlns="http://www.w3.org/2000/svg"><path fill-rule="evenodd" clip-rule="evenodd" d="M15 30c8.284 0 15-6.716 15-15 0-8.284-6.716-15-15-15C6.716 0 0 6.716 0 15c0 8.284 6.716 15 15 15z" fill="#C4C4C4"/><path fill-rule="evenodd" clip-rule="evenodd" d="M16.253 7c-3.207-.022-5.83 2.645-5.83 5.805v5.463c0 1.48-.934 2.733-2.224 3.165a.291.291 0 00-.05.53l1.639.933a.811.811 0 00.88-.056 5.669 5.669 0 002.327-4.572v-5.492c0-1.743 1.397-3.214 3.166-3.24 1.816-.027 3.294 1.428 3.266 3.218-.027 1.743-1.52 3.12-3.288 3.12h-1.425a.394.394 0 00-.397.391v1.753c0 .216.178.391.397.391h1.395c3.207 0 5.913-2.585 5.89-5.745-.021-3.119-2.582-5.642-5.746-5.664z" fill="#fff"/></svg>